# File created by Blade
# Date/Time:  Tue Apr 07 20:35:32 2015
# Frame Rate: 120.000 fps
#------------------------------------------------------
:FULLY-SPECIFIED
:DEGREES
2237
root -0.457971 33.138901 -2.766482 14.496354 -2.720291 -0.254785
Spine -16.774734 -2.551741 -2.152381
Head 9.341550 -0.767867 0.563194
LeftShoulder -22.886457 38.400350 21.445953
LeftArm 53.540735 -58.343854 -52.646885
LeftForeArm 15.910741 -0.000000 -0.005334
LeftHand 1.844740 -0.000000 6.938798
LeftHandThumb1 -26.253704 0.000000 33.147579
RightShoulder -7.599617 4.676273 -32.483838
RightArm 10.298685 10.016395 37.522986
RightForeArm -11.769065 -0.000000 1.566317
RightHand -0.351228 -0.000000 1.017588
RightHandThumb1 -24.326973 -0.000000 -32.862282
LeftUpLeg -8.078446 -5.010127 2.008457
LeftLeg -2.403057 -0.000000 0.000000
LeftFoot -1.398977 7.752633 -16.421803
LeftToeBase -13.111526 -0.000000 0.000000
RightUpLeg -9.123650 -3.369974 0.021686
RightLeg -3.072409 -0.000000 0.000000
RightFoot -1.793504 -4.947482 7.329956
RightToeBase -3.798906 -0.000000 0.000000
2238
root -0.458905 33.140372 -2.761851 14.503536 -2.703322 -0.356865
Spine -16.835483 -2.518357 -1.971257
Head 9.366330 -0.802666 0.472385
LeftShoulder -22.793214 38.113958 21.604559
LeftArm 53.012152 -58.492186 -52.219421
LeftForeArm 15.948277 -0.000000 0.129226
LeftHand 1.875348 -0.000000 6.999606
LeftHandThumb1 -26.253704 0.000000 33.147579
RightShoulder -7.674295 4.744109 -32.566803
RightArm 10.154618 10.207930 37.223672
RightForeArm -12.005420 -0.000000 1.599376
RightHand -0.444359 -0.000000 1.106803
RightHandThumb1 -24.326973 -0.000000 -32.862282
LeftUpLeg -8.062789 -4.999987 2.065825
LeftLeg -2.407763 -0.000000 0.000000
LeftFoot -1.548744 7.924791 -16.306774
LeftToeBase -12.995249 -0.000000 0.000000
RightUpLeg -9.111023 -3.255138 0.090637
RightLeg -3.082552 -0.000000 0.000000
RightFoot -1.737437 -4.976511 7.357459
RightToeBase -3.856782 -0.000000 0.000000
2239
root -0.455559 33.137987 -2.759378 14.515411 -2.692585 -0.414361
Spine -16.897914 -2.493086 -1.836703
Head 9.388461 -0.835932 0.392351
LeftShoulder -22.754461 37.903908 21.724595
LeftArm 52.431889 -58.541388 -51.661405
LeftForeArm 15.771341 -0.000000 0.245620
LeftHand 1.754970 -0.000000 7.122589
LeftHandThumb1 -26.253704 0.000000 33.147579
RightShoulder -7.756303 4.853467 -32.658140
RightArm 9.975557 10.293295 36.918843
RightForeArm -12.201089 -0.000000 1.701965
RightHand -0.600370 0.000000 1.212907
RightHandThumb1 -24.326973 -0.000000 -32.862282
LeftUpLeg -8.113866 -4.740592 2.053968
LeftLeg -2.279433 -0.000000 0.000000
LeftFoot -1.733521 7.751134 -16.315427
LeftToeBase -12.833195 -0.000000 0.000000
RightUpLeg -9.106539 -3.131499 0.101996
RightLeg -3.087268 -0.000000 0.000000
RightFoot -1.768744 -4.988541 7.482412
RightToeBase -3.818824 -0.000000 0.000000
2240
root -0.459841 33.128852 -2.759679 14.511587 -2.632212 -0.537868
Spine -16.935016 -2.485595 -1.624748
Head 9.411388 -0.847688 0.278925
LeftShoulder -22.678627 37.698104 21.817576
LeftArm 51.904299 -58.669550 -51.148498
LeftForeArm 15.684190 -0.000000 0.373637
LeftHand 1.817482 -0.000000 7.155178
LeftHandThumb1 -26.253704 0.000000 33.147579
RightShoulder -7.815930 4.977161 -32.696373
RightArm 9.783984 10.522602 36.547363
RightForeArm -12.463200 -0.000000 1.848135
RightHand -0.850868 -0.000000 1.171491
RightHandThumb1 -24.326973 -0.000000 -32.862282
LeftUpLeg -8.100729 -4.829486 2.183651
LeftLeg -2.260548 -0.000000 0.000000
LeftFoot -2.060029 7.877562 -16.347565
LeftToeBase -12.428380 -0.000000 0.000000
RightUpLeg -9.078345 -3.005548 0.204345
RightLeg -3.091862 -0.000000 0.000000
RightFoot -1.869458 -5.063903 7.557370
RightToeBase -3.749244 -0.000000 0.000000
2241
root -0.467310 33.113884 -2.762989 14.528542 -2.529922 -0.675403
Spine -16.981053 -2.532586 -1.415250
Head 9.397815 -0.856688 0.256710
LeftShoulder -22.642982 37.567278 21.932667
LeftArm 51.714537 -58.891667 -51.045785
LeftForeArm 15.790432 -0.000000 0.580814
LeftHand 1.703924 0.000000 7.461283
LeftHandThumb1 -26.253704 0.000000 33.147579
RightShoulder -7.925302 5.062039 -32.728869
RightArm 9.707696 10.428487 36.191170
RightForeArm -12.415051 0.000000 1.873250
RightHand -0.925133 -0.000000 1.245786
RightHandThumb1 -24.326973 -0.000000 -32.862282
LeftUpLeg -8.115076 -5.030721 2.367716
LeftLeg -2.247380 -0.000000 0.000000
LeftFoot -2.396345 8.018406 -16.417192
LeftToeBase -12.148203 -0.000000 0.000000
RightUpLeg -9.044704 -2.839581 0.316049
RightLeg -3.139698 -0.000000 0.000000
RightFoot -2.034404 -5.173433 7.702540
RightToeBase -3.628274 -0.000000 0.000000
2242
root -0.467240 33.094143 -2.766696 14.538034 -2.427075 -0.739588
Spine -17.027521 -2.582586 -1.280436
Head 9.389270 -0.910689 0.231928
LeftShoulder -22.579191 37.459783 22.039516
LeftArm 51.411647 -59.071220 -50.766249
LeftForeArm 15.770800 0.000000 0.746321
LeftHand 1.588833 0.000000 7.443607
LeftHandThumb1 -26.253704 0.000000 33.147579
RightShoulder -8.029836 5.180180 -32.803819
RightArm 9.553825 10.515610 35.920453
RightForeArm -12.526526 -0.000000 1.992018
RightHand -0.966666 0.000000 1.190232
RightHandThumb1 -24.326973 -0.000000 -32.862282
LeftUpLeg -8.134433 -5.138589 2.455375
LeftLeg -2.228353 -0.000000 0.000000
LeftFoot -2.665393 8.019039 -16.377723
LeftToeBase -11.875575 -0.000000 0.000000
RightUpLeg -9.071943 -2.856590 0.388579
RightLeg -3.053080 -0.000000 0.000000
RightFoot -2.359769 -5.184413 7.700618
RightToeBase -3.381422 -0.000000 0.000000
